<?xml version="1.0" encoding="utf-8"?>
<!-- Generator: Adobe Illustrator 18.0.0, SVG Export Plug-In . SVG Version: 6.00 Build 0)  -->
<!DOCTYPE svg PUBLIC "-//W3C//DTD SVG 1.1//EN" "http://www.w3.org/Graphics/SVG/1.1/DTD/svg11.dtd">
<svg version="1.1" id="Capa_1" xmlns="http://www.w3.org/2000/svg" xmlns:xlink="http://www.w3.org/1999/xlink" x="0px" y="0px"
	 viewBox="0 0 1000 1000" enable-background="new 0 0 1000 1000" xml:space="preserve">
<g>
	<g id="search">
		<path fill="#606060" d="M714.3,628.5h-45.7l-17-17c57.1-63,91.4-148.6,91.4-240C742.8,165.6,577,0,371.5,0S0,165.6,0,371.5
			S165.6,743,371.5,743c91.4,0,177.2-34.3,240-91.4l17,17v45.7L914.2,1000l85.8-85.8L714.3,628.5z M371.5,628.5
			c-143,0-257.2-114.3-257.2-257s114.3-257.2,257.2-257.2s257.2,114.3,257.2,257.2S514.2,628.5,371.5,628.5z"/>
	</g>
</g>
</svg>
